<?xml version="1.0" encoding="UTF-8" standalone="no"?>
<!-- Created with Inkscape (http://www.inkscape.org/) -->

<svg
   width="38.310326mm"
   height="54.704163mm"
   viewBox="0 0 38.310326 54.704163"
   version="1.1"
   id="svg5"
   xml:space="preserve"
   sodipodi:docname="3.svg"
   inkscape:version="1.2.2 (732a01da63, 2022-12-09)"
   inkscape:export-filename="4.svg"
   inkscape:export-xdpi="132.60132"
   inkscape:export-ydpi="132.60132"
   xmlns:inkscape="http://www.inkscape.org/namespaces/inkscape"
   xmlns:sodipodi="http://sodipodi.sourceforge.net/DTD/sodipodi-0.dtd"
   xmlns="http://www.w3.org/2000/svg"
   xmlns:svg="http://www.w3.org/2000/svg"><sodipodi:namedview
     id="namedview7"
     pagecolor="#ffffff"
     bordercolor="#000000"
     borderopacity="0.25"
     inkscape:showpageshadow="2"
     inkscape:pageopacity="0.0"
     inkscape:pagecheckerboard="0"
     inkscape:deskcolor="#d1d1d1"
     inkscape:document-units="mm"
     showgrid="false"
     inkscape:zoom="2.9540684"
     inkscape:cx="74.135047"
     inkscape:cy="132.35983"
     inkscape:window-width="1920"
     inkscape:window-height="1009"
     inkscape:window-x="-8"
     inkscape:window-y="-8"
     inkscape:window-maximized="1"
     inkscape:current-layer="layer1" /><defs
     id="defs2" /><g
     inkscape:label="Vrstva 1"
     inkscape:groupmode="layer"
     id="layer1"
     transform="translate(-34.06096,-42.408461)"><path
       style="fill:#000000;stroke:none;stroke-width:1.2795;stroke-linecap:square;stroke-dasharray:none"
       d="m 52.578206,56.160055 -0.06325,1.251423 -2.782723,-1.807606 c 0,0 -1.201627,-0.78403 -1.454608,-0.252987 -0.252952,0.531057 -0.3162,2.755801 -0.06325,3.729124 0.252991,0.973326 0.569196,1.575863 0.126453,2.827275 -0.44272,1.251423 -0.252951,1.390471 0.189702,2.410137 0.442719,1.019676 0.822172,1.76126 0.505953,2.734588 -0.3162,0.973321 -1.075149,0.973321 -1.011906,1.853949 0.06325,0.880625 0.885418,1.436813 1.011906,2.641883 0.1265,1.205067 0.569191,3.012672 -0.06325,4.078695 -0.632439,1.066023 -1.138387,2.132046 -0.695684,3.47616 0.442724,1.344114 1.960556,4.681237 1.391365,6.118051 -0.569195,1.436811 -4.110848,4.773923 -2.087044,5.19106 2.023799,0.417142 9.423318,0.648886 10.119002,0.04632 0.695683,-0.602537 0.505952,-2.224744 -0.126453,-3.337112 -0.632434,-1.112372 -1.644329,-3.800606 -1.454601,-4.727583 0.189703,-0.926977 1.644339,-1.575853 1.83407,-2.827274 0.189703,-1.251416 -0.632438,-4.35679 -0.94866,-4.959325 -0.316198,-0.602533 -0.126452,-2.985632 0.316201,-3.508989 0.442721,-0.523355 1.644339,-2.516355 1.075143,-3.489678 -0.569191,-0.973326 -1.454606,-1.066026 -1.517846,-2.2711 -0.06325,-1.205063 0.822167,-2.641877 0.948655,-3.105363 0.126453,-0.463488 0.189703,-0.648881 -0.442719,-1.205072 -0.632441,-0.556188 0.126452,-0.69523 0.189702,-2.317441 0.06325,-1.622207 0.06325,-2.641882 -1.075146,-1.9003 -1.138388,0.741577 -2.592992,0.880625 -2.845973,0.834276 -0.25299,-0.04632 -0.25299,-1.483162 -0.25299,-1.483162 z"
       id="path4722"
       inkscape:export-filename="4.svg"
       inkscape:export-xdpi="96"
       inkscape:export-ydpi="96" /><path
       style="fill:none;stroke:#000000;stroke-width:1.1141;stroke-linecap:square;stroke-dasharray:none"
       d="m 52.546798,48.248057 c 0,0 -3.322146,2.671841 -2.636624,4.952249 0.685519,2.280398 3.796735,4.570401 5.431445,0.674317 1.634708,-3.896078 -2.794821,-5.626566 -2.794821,-5.626566 z"
       id="path4729" /><path
       style="fill:#000000;stroke:none;stroke-width:0.95962;stroke-linecap:square;stroke-dasharray:none"
       d="m 50.224161,52.483303 c 0,0 1.552504,-2.851301 2.520335,-2.916849 0.96783,-0.06556 2.533036,3.277357 2.533036,3.277357 l -0.04492,-2.884075 c 0,0 -1.983697,-1.966414 -2.236004,-1.900866 -0.252353,0.06556 -0.53664,-0.327743 -0.939124,0.131105 -0.40247,0.458827 -1.162718,1.573126 -1.475761,2.03196 -0.313042,0.458827 -0.357767,2.261374 -0.357767,2.261374 z"
       id="path4731" /></g></svg>
