<?xml version="1.0" encoding="UTF-8" standalone="no"?>
<!-- Created with Inkscape (http://www.inkscape.org/) -->

<svg
   width="200.01399mm"
   height="285.96622mm"
   viewBox="0 0 200.01399 285.96622"
   version="1.1"
   id="svg5"
   xml:space="preserve"
   sodipodi:docname="12.svg"
   inkscape:version="1.2.2 (732a01da63, 2022-12-09)"
   xmlns:inkscape="http://www.inkscape.org/namespaces/inkscape"
   xmlns:sodipodi="http://sodipodi.sourceforge.net/DTD/sodipodi-0.dtd"
   xmlns="http://www.w3.org/2000/svg"
   xmlns:svg="http://www.w3.org/2000/svg"><sodipodi:namedview
     id="namedview7"
     pagecolor="#ffffff"
     bordercolor="#000000"
     borderopacity="0.25"
     inkscape:showpageshadow="2"
     inkscape:pageopacity="0.0"
     inkscape:pagecheckerboard="0"
     inkscape:deskcolor="#d1d1d1"
     inkscape:document-units="mm"
     showgrid="true"
     showguides="false"
     inkscape:zoom="0.54235954"
     inkscape:cx="195.44231"
     inkscape:cy="654.54735"
     inkscape:window-width="1920"
     inkscape:window-height="1009"
     inkscape:window-x="-8"
     inkscape:window-y="-8"
     inkscape:window-maximized="1"
     inkscape:current-layer="layer1"><inkscape:grid
       type="xygrid"
       id="grid1310" /></sodipodi:namedview><defs
     id="defs2" /><g
     inkscape:label="Vrstva 1"
     inkscape:groupmode="layer"
     id="layer1"
     transform="translate(-5.1737067,-3.8973271)"><g
       id="g470"
       transform="matrix(1.1258786,0,0,1.0700682,-13.511951,-10.849369)"
       style="stroke-width:0.48210426;stroke-dasharray:none"
       inkscape:export-filename="10.svg"
       inkscape:export-xdpi="96"
       inkscape:export-ydpi="96"><path
         style="fill:none;stroke:#000000;stroke-width:0.48210426;stroke-linecap:round;stroke-linejoin:round;stroke-dasharray:none"
         d="M 39.140186,13.901638 H 172.15394 c 0,0 8.43863,8.868175 21.81709,22.91257 0.35188,36.30761 0,221.370682 0,221.370682 0,0 -9.54951,9.88122 -21.81709,22.56007 -30.61426,0.35249 -133.365644,0 -133.365644,0 0,0 -9.964553,-10.06135 -21.993016,-22.20757 -0.175944,-25.02758 0,-222.18071 0,-222.18071 0,0 3.852199,-3.619109 22.344906,-22.455042 z"
         id="path356"
         sodipodi:nodetypes="ccccccccc" /><path
         style="fill:none;stroke:#000000;stroke-width:0.48210426;stroke-linecap:round;stroke-linejoin:round;stroke-dasharray:none"
         d="M 19.148409,16.264606 H 191.79068 V 278.26726 H 19.148409 Z"
         id="path466" /><path
         style="fill:none;stroke:#000000;stroke-width:0.48210426;stroke-linecap:round;stroke-linejoin:round;stroke-dasharray:none"
         d="m 42.7139,18.723442 h 125.91293 c 0,0 7.98813,8.544278 20.65238,22.075717 0.33311,34.981523 0,213.285431 0,213.285431 0,0 -9.03975,9.5203 -20.65238,21.73607 -28.97998,0.33961 -126.246036,0 -126.246036,0 0,0 -9.432599,-9.69388 -20.818931,-21.39647 -0.166551,-24.11349 0,-214.065845 0,-214.065845 0,0 3.646552,-3.486928 21.152037,-21.634903 z"
         id="path1296"
         sodipodi:nodetypes="ccccccccc" /></g></g></svg>
